<svg width="31" height="31" viewBox="0 0 31 31" fill="none" xmlns="http://www.w3.org/2000/svg">
<g id="Dropdown" clip-path="url(#clip0_1332_1646)">
<path id="Vector" d="M20.1726 15.3163C20.1548 15.2581 20.1426 15.1972 20.1191 15.1409C20.0554 14.9881 20.0188 14.9619 19.9157 14.8363L12.411 7.33251C12.3163 7.2547 12.2198 7.17595 12.1073 7.12907C11.7098 6.96407 11.2082 7.11501 10.9682 7.47407C10.7629 7.78157 10.7629 8.20907 10.9682 8.51657C11.0019 8.56814 11.046 8.61126 11.0844 8.65907L17.9254 15.5L11.0844 22.34L10.9682 22.4825C10.9391 22.5369 10.9054 22.5884 10.8819 22.6447C10.7169 23.0413 10.8632 23.54 11.2269 23.7838C11.5344 23.9891 11.9619 23.9891 12.2694 23.7838C12.3201 23.7491 12.3641 23.7059 12.411 23.6666L19.9157 16.1628C19.9541 16.115 19.9982 16.0719 20.0319 16.0203C20.1004 15.9181 20.1482 15.8038 20.1726 15.6828C20.196 15.5628 20.1838 15.4391 20.1726 15.3163Z" fill="#9C57CC"/>
</g>
<defs>
<clipPath id="clip0_1332_1646">
<rect width="30" height="30" fill="white" transform="matrix(0 -1 1 0 0.5 30.5)"/>
</clipPath>
</defs>
</svg>
