<svg width="150" height="30" viewBox="0 0 150 30" fill="none" xmlns="http://www.w3.org/2000/svg">
<g id="Blue star">
<path id="Vector" d="M30 0H0V30H30V0Z" fill="#004E9F"/>
<path id="Vector_2" d="M28 2H2V28H28V2Z" fill="white"/>
<path id="Vector_3" d="M150 0H33V30H150V0Z" fill="#004E9F"/>
<path id="Vector_4" d="M45.275 15.9H50.875C51.3 15.9 51.475 16 51.525 16.05C51.625 16.15 51.675 16.375 51.675 16.675V17.025C51.675 17.3 51.625 17.475 51.525 17.575C51.475 17.625 51.3 17.725 50.825 17.725H45.275V15.9ZM50.8 12.3C51.125 12.3 51.25 12.375 51.325 12.425C51.4 12.5 51.45 12.675 51.45 12.925V13.275C51.45 13.55 51.4 13.75 51.325 13.825C51.225 13.925 51.075 13.975 50.825 13.975H45.275V12.275H50.8V12.3ZM52.875 14.825C53.4 14.55 53.675 14.025 53.675 13.275V12.675C53.675 12.175 53.625 11.775 53.525 11.45C53.425 11.1 53.25 10.825 53 10.6C52.775 10.4 52.45 10.25 52.075 10.175C51.725 10.1 51.275 10.05 50.775 10.05H42.975V19.975H50.775C51.3 19.975 51.75 19.925 52.125 19.85C52.525 19.775 52.85 19.625 53.125 19.4C53.375 19.175 53.575 18.9 53.7 18.525C53.825 18.175 53.875 17.75 53.875 17.25V16.625C53.875 16 53.7 15.525 53.375 15.225C53.25 15.05 53.075 14.925 52.875 14.825Z" fill="white"/>
<path id="Vector_5" d="M57.925 10.05H55.675V19.95H64.9V17.7H57.925V10.05Z" fill="white"/>
<path id="Vector_6" d="M74.8 16.75C74.8 17.1 74.75 17.375 74.625 17.5C74.5 17.625 74.3 17.7 73.975 17.7H69.325C69.025 17.7 68.8 17.625 68.675 17.5C68.55 17.35 68.5 17.1 68.5 16.75V10.05H66.275V16.75C66.275 17.3 66.325 17.8 66.425 18.175C66.525 18.575 66.725 18.925 66.95 19.2C67.2 19.475 67.525 19.675 67.925 19.775C68.3 19.9 68.775 19.95 69.325 19.95H73.975C74.525 19.95 75 19.9 75.375 19.775C75.775 19.65 76.1 19.45 76.35 19.2C76.6 18.925 76.775 18.6 76.875 18.175C76.975 17.775 77.025 17.3 77.025 16.75V10.05H74.775V16.75H74.8Z" fill="white"/>
<path id="Vector_7" d="M79.025 19.95H88.025V17.7H81.275V15.95H88.025V14.025H81.275V12.3H88.05V10.05H79.025V19.95Z" fill="white"/>
<path id="Vector_8" d="M105.1 14.675C104.825 14.45 104.475 14.3 104.05 14.175C103.625 14.075 103.125 14.025 102.525 14.025H98.75C98.25 14.025 98.05 13.925 97.95 13.85C97.825 13.725 97.775 13.5 97.775 13.175C97.775 12.85 97.825 12.625 97.95 12.5C98.025 12.425 98.25 12.325 98.75 12.325H105.55V10.05H98.775C98.175 10.05 97.675 10.1 97.275 10.2C96.85 10.3 96.525 10.475 96.25 10.7C95.975 10.95 95.8 11.25 95.675 11.625C95.575 11.975 95.525 12.4 95.525 12.9V13.225C95.525 13.675 95.575 14.075 95.675 14.425C95.775 14.775 95.975 15.075 96.225 15.3C96.475 15.525 96.825 15.7 97.225 15.825C97.625 15.925 98.1 15.975 98.7 15.975H102.525C103.075 15.975 103.3 16.075 103.4 16.15C103.525 16.275 103.6 16.5 103.6 16.825C103.6 17 103.575 17.15 103.55 17.275C103.525 17.375 103.475 17.45 103.4 17.525C103.325 17.575 103.225 17.625 103.075 17.65C102.925 17.675 102.725 17.7 102.475 17.7H95.875V19.95H102.6C103.175 19.95 103.675 19.9 104.075 19.8C104.5 19.7 104.85 19.525 105.1 19.275C105.375 19.025 105.575 18.725 105.675 18.325C105.8 17.95 105.85 17.5 105.85 16.975V16.65C105.85 16.225 105.8 15.825 105.675 15.5C105.575 15.175 105.375 14.9 105.1 14.675Z" fill="white"/>
<path id="Vector_9" d="M116.4 10.05H107.2V12.3H110.675V19.95H112.925V12.3H116.4V10.05Z" fill="white"/>
<path id="Vector_10" d="M123.525 15.875H119.825L121.675 12.5L123.525 15.875ZM122.775 10.05H120.6L115.175 19.975H117.75L118.95 17.75H124.45L125.65 19.975H128.2L122.825 10.15L122.775 10.05Z" fill="white"/>
<path id="Vector_11" d="M131.325 12.325H137C137.325 12.325 137.525 12.4 137.6 12.55C137.7 12.75 137.75 13.075 137.75 13.5V13.95C137.75 14.4 137.65 14.6 137.575 14.7C137.475 14.825 137.275 14.875 137 14.875H131.325V12.325ZM137.025 16.8C137.425 16.775 137.775 16.75 138.075 16.7C138.5 16.625 138.875 16.45 139.15 16.225C139.425 16 139.65 15.675 139.775 15.25C139.9 14.875 139.95 14.375 139.95 13.775V13.2C139.95 12.65 139.9 12.175 139.8 11.775C139.7 11.375 139.525 11.025 139.3 10.775C139.075 10.525 138.75 10.325 138.375 10.225C138 10.125 137.55 10.05 137.025 10.05H129.05V19.975H131.3V16.85H134.05L136.9 19.975H140.1L137.025 16.8Z" fill="white"/>
<path id="Vector_12" d="M8.52497 14.125H21.35L10.775 21.95L12.375 17.05L8.52497 14.125ZM26.025 12.575H3.97498L10.575 17.6L7.84997 26.025L26.025 12.575Z" fill="#004E9F"/>
<path id="Vector_13" d="M15 3.97504L12.525 11.575H14.15L15 8.95004L15.85 11.575H17.475L15 3.97504Z" fill="#004E9F"/>
<path id="Vector_14" d="M22.25 26.05L15.775 21.4L17.075 20.425L19.3 22.05L18.425 19.425L19.725 18.475L22.25 26.05Z" fill="#004E9F"/>
</g>
</svg>
