<svg width="150" height="23" viewBox="0 0 150 23" fill="none" xmlns="http://www.w3.org/2000/svg">
<g id="Frame" clip-path="url(#clip0_684_1252)">
<path id="Vector" d="M5.69934 6.23261C5.58921 5.79137 5.61674 5.35012 5.67181 5.10192C5.80947 4.41247 6.27753 3.66787 7.62665 3.66787C8.89317 3.66787 9.60903 4.44005 9.60903 5.6259C9.60903 6.01199 9.60903 6.94964 9.60903 6.94964H14.9504V5.43285C14.978 0.744605 10.7654 0 7.73678 0C3.93722 0 0.825991 1.26859 0.247797 4.77098C0.0825991 5.73621 0.0550661 6.59113 0.302863 7.66667C1.23899 12.0516 8.86564 13.3201 9.96696 16.1055C10.1872 16.6295 10.1046 17.2914 10.022 17.705C9.85683 18.4221 9.36123 19.1667 7.92952 19.1667C6.5804 19.1667 5.78194 18.3945 5.78194 17.2086V15.1403H0V16.795C0 21.5935 3.77203 23.0276 7.79185 23.0276C11.674 23.0276 14.8403 21.7038 15.3634 18.1187C15.6112 16.271 15.4185 15.0576 15.3359 14.6163C14.4548 10.0659 6.30507 8.74221 5.69934 6.23261ZM75.4405 6.26019C75.3579 5.84652 75.3855 5.3777 75.413 5.15707C75.5782 4.46763 76.0187 3.72302 77.3678 3.72302C78.6068 3.72302 79.3227 4.4952 79.3227 5.65348C79.3227 6.03957 79.3227 6.97722 79.3227 6.97722H84.609V5.48801C84.609 0.854916 80.4791 0.13789 77.478 0.13789C73.7059 0.13789 70.6222 1.3789 70.0441 4.85372C69.9064 5.79137 69.8513 6.64628 70.0991 7.72182C71.0077 12.0516 78.5518 13.3201 79.6531 16.0779C79.8458 16.6019 79.7907 17.2638 79.6806 17.6499C79.5154 18.3669 79.0474 19.0839 77.6156 19.0839C76.2941 19.0839 75.4681 18.3118 75.4681 17.1535V15.0851H69.7687V16.7122C69.7687 21.4556 73.4857 22.8897 77.478 22.8897C81.3051 22.8897 84.4714 21.5659 84.967 18.036C85.2148 16.1883 85.022 15.0024 84.9394 14.5612C84.0859 10.0935 76.0463 8.76978 75.4405 6.26019ZM124.119 17.9808L119.08 0.689448H111.123V21.952H116.382L116.079 4.10911L121.503 21.952H129.13V0.689448H123.844L124.119 17.9808ZM22.9626 0.689448L18.9703 22.1727H24.7522L27.7533 2.28897L30.6718 22.1727H36.4262L32.489 0.689448H22.9626ZM55.3414 0.689448L52.6432 17.4844L49.9449 0.689448H41.1894L40.7214 22.1727H46.0903L46.228 2.28897L49.9174 22.1727H55.3414L59.0308 2.28897L59.1685 22.1727H64.5374L64.0694 0.689448H55.3414ZM105.176 0.689448H99.7522V16.5743C99.7522 16.8501 99.7522 17.1535 99.6971 17.4017C99.587 17.9257 99.1465 18.9736 97.6322 18.9736C96.1454 18.9736 95.7048 17.9532 95.5947 17.4017C95.5396 17.1811 95.5396 16.8501 95.5396 16.5743V0.689448H90.1156V16.0779C90.1156 16.464 90.1432 17.2914 90.1707 17.4844C90.5562 21.4832 93.6949 22.807 97.6322 22.807C101.569 22.807 104.736 21.5108 105.121 17.4844C105.149 17.2638 105.204 16.464 105.176 16.0779V0.689448ZM142.401 10.0935V13.2374H144.604V16.3537C144.604 16.6295 144.604 16.9329 144.548 17.1811C144.466 17.7602 143.915 18.753 142.346 18.753C140.804 18.753 140.253 17.7602 140.171 17.1811C140.143 16.9329 140.116 16.6295 140.116 16.3537V6.53597C140.116 6.17746 140.143 5.81895 140.226 5.51559C140.336 4.99161 140.804 3.97122 142.346 3.97122C143.998 3.97122 144.383 5.04676 144.493 5.51559C144.548 5.81895 144.548 6.34293 144.548 6.34293V7.52878H149.945V6.81175C149.945 6.81175 149.972 6.06715 149.917 5.3777C149.504 1.3789 146.173 0.110312 142.373 0.110312C138.574 0.110312 135.325 1.40648 134.857 5.40528C134.802 5.76379 134.747 6.42566 134.747 6.83933V15.8573C134.747 16.2434 134.747 16.5468 134.829 17.2638C135.187 21.1799 138.574 22.5588 142.373 22.5588C146.2 22.5588 149.559 21.1799 149.917 17.2638C149.972 16.5468 150 16.2434 150 15.8573V10.0935H142.401Z" fill="#034EA2"/>
</g>
<defs>
<clipPath id="clip0_684_1252">
<rect width="150" height="23" fill="white"/>
</clipPath>
</defs>
</svg>
