<svg width="150" height="38" viewBox="0 0 150 38" fill="none" xmlns="http://www.w3.org/2000/svg">
<g id="Frame" clip-path="url(#clip0_684_1214)">
<g id="Group">
<path id="Vector" d="M34.1723 0H0V31.6233L34.1723 0Z" fill="#44C8F5"/>
<path id="Vector_2" d="M17.0732 0H0V15.8247L17.0732 0Z" fill="black"/>
<path id="Vector_3" d="M85.288 24.752L89.7509 6.87122H81.8889L77.426 24.752H85.288Z" fill="#00A1E4"/>
<path id="Vector_4" d="M63.8816 17.2301H62.0653L64.9974 12.0767L65.9315 17.2301H63.8816V21.7589H66.7618L67.2807 24.752H74.987L71.7176 6.87122H62.7659L52.6206 24.752H57.836L59.5225 21.7589H63.8816V17.2301Z" fill="#00A1E4"/>
<path id="Vector_5" d="M121.302 24.752L125.739 6.87122H117.852L113.415 24.752H121.302Z" fill="#00A1E4"/>
<path id="Vector_6" d="M98.0539 18.5835L96.4971 24.752H88.9724L93.4353 6.87122H100.986L99.5069 12.7274L106.253 6.87122H114.349L104.437 15.3822L111.183 24.752H102.076L98.0539 18.5835Z" fill="#00A1E4"/>
<path id="Vector_7" d="M39.4915 20.7959H38.2201L40.685 11.1397H43.2278C44.136 11.1397 46.7566 11.374 46.4712 14.9658C46.4712 14.9658 45.9523 20.7699 41.0223 20.7699H39.4915V24.726H43.3576C48.8065 24.726 54.1775 20.6658 54.1775 14.4192C54.1775 7.07946 46.0301 6.84521 46.0301 6.84521H43.9803H34.1204L29.6835 24.726H39.4655V20.7959H39.4915Z" fill="#00A1E4"/>
<path id="Vector_8" d="M125.22 24.752L129.657 6.87122H138.428L141.93 17.3863L144.551 6.87122H150L145.563 24.752H136.819L133.316 14.1329L130.669 24.752H125.22Z" fill="#00A1E4"/>
<g id="Group_2">
<path id="Vector_9" d="M68.5781 32.326L69.3306 37.8699H68.137L67.9813 36.6726H65.8018L65.1271 37.8699H63.9855L67.151 32.326H68.5781ZM67.8775 35.7877L67.6181 33.4192L66.2948 35.7877H67.8775Z" fill="#747474"/>
<path id="Vector_10" d="M71.8993 32.326H73.0929L71.9253 37.8959H70.7317L71.8993 32.326Z" fill="#747474"/>
<path id="Vector_11" d="M74.7794 32.326H76.9071C77.5298 32.326 78.1266 32.3261 78.4899 32.6904C78.7753 32.9767 78.8272 33.3932 78.7493 33.7576C78.5158 34.7987 77.5817 35.0329 77.2963 35.111C78.1266 35.1891 78.0747 35.6576 78.0228 36.3863C77.9709 37.037 77.945 37.2973 77.9709 37.4534C77.9709 37.6877 78.0228 37.7658 78.0488 37.8439H76.7514C76.7774 37.5315 76.8811 36.1261 76.8552 35.9178C76.8293 35.6055 76.5179 35.6055 76.3363 35.6055H75.2984L74.8313 37.8439H73.6118L74.7794 32.326ZM75.4281 34.7466H76.3881C76.5179 34.7466 76.8033 34.7466 77.0109 34.5904C77.1147 34.5384 77.3741 34.3302 77.452 33.9397C77.5298 33.5754 77.3741 33.3932 77.2963 33.3151C77.1406 33.185 76.9071 33.185 76.5438 33.185H75.7654L75.4281 34.7466Z" fill="#747474"/>
<path id="Vector_12" d="M83.5236 32.326H84.7171L83.5495 37.8959H82.356L83.5236 32.326Z" fill="#747474"/>
<path id="Vector_13" d="M86.5075 32.326H88.22L89.3617 36.6987L90.2958 32.326H91.3856L90.218 37.8699H88.5833L87.4157 33.263L86.4297 37.8699H85.314L86.5075 32.326Z" fill="#747474"/>
<path id="Vector_14" d="M94.2138 33.263H92.5791L92.7867 32.3521H97.2755L97.0679 33.263H95.4333L94.4473 37.8959H93.2537L94.2138 33.263Z" fill="#747474"/>
<path id="Vector_15" d="M98.6767 32.326H102.387L102.205 33.237H99.6886L99.4032 34.5644H101.764L101.583 35.4754H99.2215L98.9102 36.9589H101.505L101.297 37.8699H97.509L98.6767 32.326Z" fill="#747474"/>
<path id="Vector_16" d="M104.048 32.326H105.267L104.307 36.9069H106.668L106.461 37.8439H102.88L104.048 32.326Z" fill="#747474"/>
<path id="Vector_17" d="M109.056 32.326H110.275L109.315 36.9069H111.676L111.469 37.8439H107.888L109.056 32.326Z" fill="#747474"/>
<path id="Vector_18" d="M114.011 32.326H115.205L114.037 37.8959H112.844L114.011 32.326Z" fill="#747474"/>
<path id="Vector_19" d="M120.317 34.0438C120.343 33.8877 120.369 33.7055 120.291 33.4712C120.135 33.1068 119.72 33.0548 119.46 33.0548C118.111 33.0548 117.592 34.3041 117.385 35.163C117.307 35.5274 117.229 36.2041 117.54 36.6466C117.748 36.9589 118.085 37.1151 118.734 37.1151C119.305 37.1151 119.512 37.037 119.668 37.011L119.901 35.8397H118.838L119.045 34.9288H121.303L120.706 37.6877C120.343 37.7918 119.746 38 118.63 38C117.359 38 116.788 37.6877 116.425 37.2712C115.932 36.6726 116.009 35.7877 116.139 35.189C116.554 33.237 118.007 32.1699 119.668 32.1699C120.369 32.1699 121.069 32.3781 121.406 32.8726C121.692 33.289 121.614 33.7315 121.562 34.0178H120.317V34.0438Z" fill="#747474"/>
<path id="Vector_20" d="M123.716 32.326H127.426L127.245 33.237H124.728L124.442 34.5644H126.803L126.622 35.4754H124.261L123.949 36.9589H126.544L126.336 37.8699H122.548L123.716 32.326Z" fill="#747474"/>
<path id="Vector_21" d="M129.139 32.326H130.851L131.993 36.6987L132.927 32.326H134.017L132.849 37.8699H131.214L130.047 33.263L129.061 37.8699H127.945L129.139 32.326Z" fill="#747474"/>
<path id="Vector_22" d="M138.557 34.148C138.583 33.9658 138.661 33.185 137.857 33.185C136.975 33.185 136.404 34.0959 136.17 35.2411C136.092 35.5795 135.781 37.1411 136.923 37.1411C137.416 37.1411 137.961 36.8288 138.142 36.1H139.388C139.284 36.4384 139.154 36.9329 138.609 37.4014C138.013 37.8959 137.364 38.0261 136.871 38.0261C134.977 38.0261 134.639 36.6206 134.951 35.2411C135.314 33.4973 136.56 32.326 138.09 32.326C139.31 32.326 139.985 33.0548 139.751 34.174H138.557V34.148Z" fill="#747474"/>
<path id="Vector_23" d="M141.723 32.326H145.433L145.252 33.237H142.709L142.423 34.5644H144.785L144.603 35.4754H142.242L141.93 36.9589H144.525L144.318 37.8699H140.529L141.723 32.326Z" fill="#747474"/>
<path id="Vector_24" d="M147.146 32.5863H146.601L146.653 32.326H148.106L148.054 32.5863H147.509L147.224 33.9137H146.886L147.146 32.5863ZM148.235 32.326H148.78L148.858 33.4973L149.455 32.326H149.974L149.637 33.9137H149.299L149.585 32.5343L148.884 33.9137H148.599L148.469 32.5343L148.184 33.9137H147.898L148.235 32.326Z" fill="#747474"/>
</g>
</g>
</g>
<defs>
<clipPath id="clip0_684_1214">
<rect width="150" height="38" fill="white"/>
</clipPath>
</defs>
</svg>
