<svg width="150" height="45" viewBox="0 0 150 45" fill="none" xmlns="http://www.w3.org/2000/svg">
<g id="Frame" clip-path="url(#clip0_684_1254)">
<g id="Group">
<path id="Vector" d="M35.3725 4.89227L27.6828 30.2769H23.1716L17.7375 11.8154L12.201 30.2769H7.74094L0 4.89227H4.46001L9.94532 23.3077L15.4819 4.89227H19.8906L25.4272 23.3077L30.9638 4.89227H35.3725Z" fill="black"/>
<path id="Vector_2" d="M37.4231 4.93843L41.8831 4.61536V10.8461L41.7806 13.1538H41.9344C43.985 12.4615 45.6254 12.1384 47.676 12.1384C51.2645 12.1384 53.6739 13.6154 53.6739 19.1538V30.2307H49.2139V19.4769C49.2139 16.1538 47.4197 15.6923 45.3178 15.6923C44.0362 15.6923 42.9597 15.9692 41.7806 16.2461V30.2307H37.4231V4.93843Z" fill="black"/>
<path id="Vector_3" d="M59.8257 5.21539C62.1326 5.21539 62.4914 6.41539 62.4914 7.75385C62.4914 9.09232 62.03 10.3385 59.8257 10.3385C57.6213 10.3385 57.2112 9.09232 57.2112 7.75385C57.2112 6.41539 57.6213 5.21539 59.8257 5.21539ZM57.6213 12.4154H62.0813V30.2769H57.6213V12.4154Z" fill="black"/>
<path id="Vector_4" d="M65.8236 12.4154H68.8482L69.4634 13.8923H69.771C70.9501 12.9692 72.7956 12.1846 75.205 12.1846C75.4613 12.1846 75.8202 12.1846 76.1278 12.2308V16.1539C75.3075 16.0616 74.4873 15.9231 73.6158 15.9231C72.3855 15.9231 71.4114 16.2 70.2836 16.6616V30.3231H65.8236V12.4154Z" fill="black"/>
<path id="Vector_5" d="M78.0247 30.2769V4.93843L82.4334 4.61536V30.2769H78.0247Z" fill="black"/>
<path id="Vector_6" d="M114.012 12.1384C120.318 12.1384 122.727 15.5077 122.727 21.4154C122.727 27 120.472 30.6 113.91 30.6C107.348 30.6 105.041 26.9538 105.041 21.4154C105.092 15.5077 107.758 12.1384 114.012 12.1384ZM118.216 21.4154C118.216 18.0461 117.601 15.2769 114.064 15.2769C110.475 15.2769 109.604 17.9538 109.604 21.4154C109.604 24.6461 110.321 27.4615 113.91 27.4615C117.447 27.4615 118.216 24.7846 118.216 21.4154Z" fill="black"/>
<path id="Vector_7" d="M133.954 12.1384C140.26 12.1384 142.669 15.5077 142.669 21.4154C142.669 27 140.414 30.6 133.852 30.6C127.29 30.6 124.983 26.9538 124.983 21.4154C125.034 15.5077 127.649 12.1384 133.954 12.1384ZM138.158 21.4154C138.158 18.0461 137.543 15.2769 134.005 15.2769C130.417 15.2769 129.494 17.9538 129.494 21.4154C129.494 24.6461 130.212 27.4615 133.8 27.4615C137.338 27.4615 138.158 24.7846 138.158 21.4154Z" fill="black"/>
<path id="Vector_8" d="M145.591 30.2769V4.93843L150 4.61536V30.2769H145.591Z" fill="black"/>
<path id="Vector_9" d="M86.0731 12.4154H89.4053L89.7642 13.7077C91.097 13.0615 93.5577 12.1384 95.7621 12.1384C99.812 12.1384 102.734 14.8154 102.734 21.1384C102.734 27.4154 99.6069 30.5077 94.4292 30.5077C92.5324 30.5077 90.4306 30.1384 90.4306 30.1384V38.3077L85.9706 38.723V12.4154H86.0731ZM90.5331 26.9538C91.7635 27 92.4812 27.0461 93.7628 27.0461C96.5311 27.0461 98.3253 25.7538 98.3253 20.5384C98.3253 16.9846 96.6849 16.0154 93.8141 16.0154C92.6862 16.0154 91.6097 16.2 90.5331 16.523V26.9538Z" fill="black"/>
<path id="Vector_10" d="M108.066 1.43073C104.733 -2.03081 94.2242 1.01535 82.4334 8.35381V10.2C92.7888 3.55381 101.965 0.507654 104.58 3.23073C107.861 6.64612 99.7096 17.7692 86.432 28.1077C73.1545 38.4461 59.7232 44.0307 56.4423 40.6153C54.7506 38.8615 56.1347 34.9846 59.7232 30.2307H57.6214C53.2126 36.1846 51.5209 41.1692 53.8278 43.5692C57.9802 47.9077 73.5134 41.9538 88.4826 30.323C103.452 18.6923 112.218 5.76919 108.066 1.43073Z" fill="#FEC014"/>
</g>
</g>
<defs>
<clipPath id="clip0_684_1254">
<rect width="150" height="45" fill="white"/>
</clipPath>
</defs>
</svg>
