<svg width="150" height="48" viewBox="0 0 150 48" fill="none" xmlns="http://www.w3.org/2000/svg">
<g id="Frame" clip-path="url(#clip0_684_1266)">
<g id="Group">
<path id="Vector" fill-rule="evenodd" clip-rule="evenodd" d="M44.4319 16.0189C44.4319 16.5283 44.1478 17.0377 43.6932 17.2642L19.2046 31.3585C18.4091 31.7547 17.5569 32.0377 16.591 32.0377C16.1364 32.0377 15.6819 31.9811 15.2273 31.8679L7.95459 29.9434L30.341 17.0943C30.7387 16.8679 31.0228 16.4717 31.0228 16.0189C31.0228 15.566 30.7387 15.1698 30.341 14.9434L7.95459 2.03774L15.2841 0.169811C15.6819 0.0566038 16.1364 0 16.6478 0C17.6137 0 18.466 0.226415 19.2614 0.679245L43.75 14.7736C44.1478 15 44.4319 15.4528 44.4319 16.0189Z" fill="#0071BB"/>
<path id="Vector_2" fill-rule="evenodd" clip-rule="evenodd" d="M8.57955 7.47168C13.2955 7.47168 17.1591 11.3207 17.1591 16.0188C17.1591 20.717 13.2955 24.566 8.57955 24.566C3.86364 24.566 0 20.717 0 16.0188C0 11.2641 3.86364 7.47168 8.57955 7.47168Z" fill="#F05A22"/>
<path id="Vector_3" fill-rule="evenodd" clip-rule="evenodd" d="M128.352 37.9811C128.352 38.2642 127.784 39.283 126.648 40.9811C126.477 40.9245 126.25 40.9245 125.909 40.9245C125.909 40.8679 125.909 40.8679 125.852 40.8113V40.7547C125.852 40.6981 125.852 40.6981 125.909 40.6415C126.023 40.5283 126.023 40.4151 126.023 40.1887C126.023 40.1321 126.08 40.0755 126.136 40.0755L126.25 40.1321C126.25 40.1321 126.307 39.9057 126.364 39.566C126.421 39.3396 126.534 39.1698 126.761 39.1132L126.705 38.8868C126.421 39 126.193 39.1132 125.909 39.2264C125.398 39.4528 125.171 39.6226 125.171 39.7359V39.7925C125 39.8491 124.83 39.9623 124.602 40.2453C124.205 40.4717 123.75 40.8679 123.239 41.434C122.671 42.0566 122.443 42.5094 122.557 42.7925C122.443 42.8491 122.273 42.9623 122.046 43.1887C121.932 43.3019 121.591 43.4151 121.136 43.5283C121.136 43.4717 121.08 43.3585 120.909 43.3019C120.739 43.2453 120.682 43.1887 120.682 43.1321C120.682 43.1887 120.739 43.0755 120.909 42.7359C120.909 42.566 121.136 42.1132 121.705 41.3208C122.216 40.5283 122.5 39.9623 122.5 39.6793C122.5 39.6226 122.5 39.5094 122.443 39.4528C122.386 39.3396 122.386 39.283 122.386 39.2264C122.614 38.8868 122.841 38.7736 123.068 38.7736C123.636 38.7736 123.921 38.8868 124.034 39.0566C124.148 39.3396 124.261 39.5094 124.261 39.5094C124.546 39.283 125.057 38.8868 125.909 38.434C126.761 37.9245 127.273 37.6981 127.557 37.6981H128.068C128.125 37.6981 128.125 37.6981 128.125 37.7547C128.125 37.8113 128.182 37.8679 128.296 37.8679C128.296 37.9245 128.352 37.9245 128.352 37.9811Z" fill="#221F20"/>
<path id="Vector_4" fill-rule="evenodd" clip-rule="evenodd" d="M141.989 38.0377C141.989 38.0943 141.989 38.1509 141.932 38.2075C141.875 38.2641 141.875 38.3207 141.875 38.3774C141.648 38.3774 141.591 38.434 141.591 38.6038C141.534 38.6038 141.42 38.6038 141.307 38.6038C141.193 38.6038 140.795 38.6038 140.739 38.6038C140.682 38.1509 139.375 38.9434 139.261 39.283C139.205 39.3962 139.261 39.7358 139.375 39.9057C139.489 40.0189 139.489 39.9623 139.545 40.0189C139.773 40.5283 140.795 41.6038 140.511 42.1698C140.511 42.2264 140.511 42.1698 140.454 42.1698C140.511 42.2264 139.943 42.7358 139.773 42.849C139.375 43.0755 140.057 42.9057 139.716 42.9623L137.954 43.5849L137.727 43.6415C137.727 43.6415 137.614 43.5849 137.216 43.5849C137.159 43.5849 137.102 43.5849 137.045 43.5849C136.989 43.5849 136.932 43.6415 136.875 43.6415C136.818 43.6415 136.704 43.4151 136.591 43.2453C136.534 43.0755 136.477 42.9623 136.42 42.7924L136.534 42.6226C136.591 42.6226 136.704 42.6226 137.216 42.7358L137.329 42.9057L137.614 42.9623C137.727 42.9623 139.148 42.4528 139.318 42.3962L139.375 42.3396C139.545 42.1132 139.602 42.1698 139.545 41.8302C139.545 41.717 139.375 41.1509 138.92 40.6415C138.693 40.3585 138.579 40.2453 138.466 40.0755C138.409 40.0189 138.352 39.7358 138.295 39.6226C138.295 39.5094 138.352 39.3396 138.466 39.1698C138.579 38.9434 138.807 38.7736 139.261 38.4906C139.545 38.3207 139.716 38.2075 140.057 38.0377C140.17 37.9811 140.341 37.8679 140.795 37.6415C140.852 37.6415 140.852 37.5849 140.795 37.5849C140.852 37.5849 141.023 37.5849 141.193 37.5849C141.364 37.5849 141.534 37.5849 141.591 37.5849C141.704 37.5849 141.818 37.6415 141.932 37.8113C141.875 37.8113 141.989 37.9245 141.989 38.0377Z" fill="#221F20"/>
<path id="Vector_5" fill-rule="evenodd" clip-rule="evenodd" d="M129.886 39.9056C130.739 38.6038 131.08 37.8679 130.966 37.6415C131.136 37.5283 131.364 37.4717 131.534 37.4717C131.591 37.4717 131.705 37.4717 131.875 37.5283C131.989 37.5849 132.102 37.5849 132.216 37.5849C132.216 37.6415 132.102 37.7547 131.989 37.8679C131.989 37.9245 132.045 37.9245 132.102 37.8679C131.591 38.8868 129.489 41.2075 129.318 42.1698C129.261 42.3962 129.773 42.6792 129.943 42.3962C130.057 42.283 130.625 41.8868 130.909 41.717C131.193 41.5472 131.307 41.4906 131.307 41.4906C131.307 41.4906 131.989 41.0943 132.33 40.6981C132.5 40.6981 132.841 40.2453 133.068 40.0755C133.295 39.849 133.466 39.7924 133.523 39.7924C133.58 39.7924 133.693 39.566 134.205 39.1132C134.659 38.6604 134.943 38.3773 135 38.3773H135.341C135.455 38.3773 135.625 38.4906 135.682 38.6604C135.795 38.8302 135.909 39 136.136 39C135.909 39.1132 135.682 39.3396 135.341 39.6226C135.341 39.7924 135.227 40.0189 135 40.2453L135.057 40.3585C135.057 40.4717 134.943 40.6981 134.773 40.9811C134.545 41.2641 134.148 41.6604 134.148 41.8302C134.148 41.8868 134.148 42 134.205 42.1132C134.205 42.1698 134.261 42.7358 134.545 42.9056C134.261 43.1887 133.864 43.3585 133.466 43.4151C133.068 43.2453 132.841 43.0755 132.841 42.849C132.841 42.9056 133.239 41.717 133.92 40.5849L133.807 40.4717C133.409 40.7547 133.068 41.2641 132.67 41.6604C132.33 42 131.875 42.283 131.42 42.566C130.795 42.9622 129.886 43.4717 129.034 43.4717C127.557 42.3962 129.205 40.9811 129.886 39.9056Z" fill="#221F20"/>
<path id="Vector_6" fill-rule="evenodd" clip-rule="evenodd" d="M104.886 39.1698C104.886 39.0566 104.886 39.0566 104.773 39.0566C104.545 39.0566 104.091 39.0566 103.466 39.4528C102.841 39.8491 102.5 40.1321 102.5 40.2453L102.329 40.1887C101.477 40.8113 100.682 41.717 99.9431 42.3962L100.057 42.5094C99.9431 42.566 99.8863 42.6792 99.8863 42.8491C99.8863 42.9623 99.8863 43.0755 99.9431 43.2453C100.284 42.9057 100.568 42.7359 100.739 42.7359C100.909 42.7359 100.966 42.7359 100.909 42.7925C101.534 42.3962 102.273 41.8302 103.239 40.9811C103.352 40.8113 103.523 40.5849 103.807 40.2453C103.92 40.2453 104.091 40.0755 104.375 39.6793C104.716 39.3396 104.886 39.1698 104.886 39.1698ZM107.329 37.6415C107.159 37.8679 107.045 38.1509 106.989 38.5472C106.591 38.8868 105.795 39.8491 104.659 41.434L104.773 41.4906C104.602 41.5472 104.432 41.7736 104.204 42.2264C104.034 42.6226 103.807 42.9057 103.636 43.0189L103.807 43.0755C103.409 43.4717 103.011 43.8679 103.011 44.2642C103.011 44.3208 103.068 44.3774 103.125 44.434L102.784 44.5472L102.841 44.6604C102.784 44.6604 102.784 44.717 102.841 44.8302L102.67 44.7736C102.557 44.8868 102.102 45.2264 101.761 45.566C101.25 46.1321 100.284 46.5849 100.114 46.6981C100.114 46.6981 100.114 46.6981 100.057 46.6981C99.9431 46.6981 99.8863 46.7547 99.8863 46.9245C99.8863 47.2076 99.6022 47.3208 99.6022 47.2642C99.4317 47.5472 98.1817 47.8868 98.0113 47.8868C97.7272 47.9434 97.4431 48.0566 96.9886 48.0566C96.9317 47.8302 96.9885 47.8302 96.8181 48C96.3635 47.4906 96.3067 47.0943 96.8181 47.2076C97.5567 47.3774 100.114 46.3019 100.17 45.5094L100.341 45.566C100.625 44.9434 101.477 45.1132 102.216 43.8679L102.045 43.8113C102.102 43.5283 102.5 43.1887 102.727 42.6793C102.784 42.6226 102.841 42.566 102.841 42.566C102.841 42.5094 102.784 42.5094 102.784 42.5094C102.329 42.7925 101.875 43.0755 101.477 43.3585C100.795 43.7547 100.398 43.9811 100.17 43.9811C99.8295 43.9811 99.7158 44.0377 99.9431 44.0943C99.6022 43.9811 99.0908 43.8679 98.409 43.6415C98.5226 43.5283 98.6363 43.4717 98.6363 43.4717C98.6363 43.3585 98.6363 43.3019 98.5795 43.2453C98.5226 43.1887 98.5226 43.1887 98.5226 43.1321C98.5226 43.0755 98.5795 43.0189 98.5795 42.9623C98.5795 42.8491 98.6363 42.7359 98.7499 42.5094C98.9204 42.283 99.2045 42 99.4886 41.5472L99.659 41.6038C99.9999 41.2076 100.568 40.5283 101.477 39.9057C102.386 39.283 103.068 38.9434 103.409 38.6038C103.409 38.6038 103.864 38.434 104.829 37.9245C105.454 37.5849 105.966 37.4151 106.42 37.4151C106.477 37.4151 106.648 37.4717 106.932 37.5849C107.159 37.5283 107.273 37.6415 107.329 37.6415Z" fill="#221F20"/>
<path id="Vector_7" fill-rule="evenodd" clip-rule="evenodd" d="M99.5454 38.4339C99.5454 38.3773 99.4318 38.5472 99.2045 38.8868C99.1477 39.2264 98.6932 40.0755 97.7841 41.4339C96.9318 42.7358 96.5909 43.4717 96.7045 43.6981C96.5341 43.8113 96.3068 43.8679 96.1363 43.8679C96.0795 43.8679 95.9659 43.8679 95.7954 43.8113C95.6818 43.7547 95.5682 43.7547 95.4545 43.7547C95.4545 43.6981 95.5682 43.5849 95.6818 43.4717C95.6818 43.4151 95.625 43.4151 95.5682 43.4717C96.0795 42.6226 96.7613 41.3207 97.6704 39.6226H97.7272C97.7272 39.6226 97.7841 39.566 97.7841 39.5094C97.7841 39.4528 97.7841 39.3962 97.7841 39.3962L97.6704 39.4528H97.5568C97.5 39.4528 97.4432 39.5094 97.4432 39.5094C97.3295 39.6226 97.1591 39.7358 96.875 39.9056C96.5909 40.0755 96.4772 40.1321 96.5341 40.1321C96.5341 40.1321 96.5341 40.1887 96.5909 40.2453C96.1932 40.3019 95.8523 40.5283 95.5113 40.9245C95.3409 40.9245 95.1136 41.0377 94.8863 41.2075C94.6591 41.4339 94.4886 41.4906 94.4318 41.4906C94.375 41.4906 94.0909 41.717 93.5795 42.1698C93.125 42.6226 92.8409 42.9056 92.7841 42.9056H92.4432C92.3295 42.9056 92.1591 42.7924 92.1023 42.6226C91.9886 42.4528 91.875 42.283 91.6477 42.283C91.875 42.1698 92.1022 41.9434 92.4432 41.6604C92.4432 41.4905 92.5568 41.2641 92.7841 41.0377L92.7272 40.9245C92.7272 40.8113 92.8409 40.5849 93.0113 40.3019C93.2386 40.0189 93.2954 39.7924 93.2954 39.6226C93.2954 39.566 93.2954 39.4528 93.2386 39.3396C93.2386 39.283 93.2386 39.1698 93.2954 39C93.5795 38.717 93.8636 38.5472 94.2613 38.4906C94.6591 38.6604 94.8863 38.8302 94.8863 39.0566C94.8863 39 94.5454 39.566 93.8636 40.6981L93.9772 40.8113C94.8863 40.2453 96.25 39.3396 98.0113 38.1509V38.0943C98.0113 38.0377 98.0113 38.0377 97.9545 38.0943C98.0113 38.0943 98.125 38.0377 98.1818 37.9245C98.2386 37.8113 98.3523 37.7547 98.4659 37.7547C98.5227 37.7547 98.6363 37.7547 98.75 37.7547C98.8636 37.7547 98.9773 37.7547 99.0341 37.7547C99.375 38.2641 99.5454 38.4339 99.5454 38.4339Z" fill="#221F20"/>
<path id="Vector_8" fill-rule="evenodd" clip-rule="evenodd" d="M93.75 34.8679C93.6363 34.9811 93.5227 35.0944 93.409 35.3208H92.5568C92.5 35.3208 92.3863 35.2076 92.2727 35.0378C92.159 34.8679 92.1022 34.7547 92.1022 34.7547C92.2159 34.6415 92.3295 34.5283 92.5 34.4151C92.6136 34.3019 92.784 34.2453 93.0113 34.2453C93.125 34.3019 93.409 34.4717 93.75 34.8679ZM91.7613 37.9811C91.1931 38.717 90.625 39.3962 90.1136 40.1321C89.2613 41.2076 88.8636 41.8868 88.8636 42.2264V42.8491C88.75 42.9057 88.75 42.9623 88.8068 43.0189C88.6363 43.0189 88.4659 43.0755 88.2954 43.1887C88.1818 43.1321 87.9545 43.0189 87.6704 42.9057C87.8409 42.3962 88.1818 41.6038 88.75 40.5849C88.8636 40.4717 89.0909 40.1887 89.2613 39.9057C89.2613 39.8491 89.375 39.6227 89.6022 39.283C89.8295 38.9434 89.9431 38.717 89.8863 38.6604C90.1136 38.6038 90.2272 38.5472 90.2272 38.434C90.2272 38.2642 90.1136 38.0944 89.8863 37.9811C90.1704 37.8679 90.5113 37.6415 90.9659 37.3585C91.0795 37.3585 91.1931 37.3585 91.3068 37.4151C91.4204 37.4717 91.534 37.5849 91.5909 37.7547C91.6477 37.9245 91.7045 38.0378 91.7613 37.9811Z" fill="#221F20"/>
<path id="Vector_9" fill-rule="evenodd" clip-rule="evenodd" d="M88.1818 37.6981C88.1818 37.9812 87.6136 39 86.4773 40.6981C86.3068 40.6415 86.0795 40.6415 85.7386 40.6415C85.7386 40.5849 85.7386 40.5849 85.6818 40.5283V40.4151C85.6818 40.3585 85.6818 40.3585 85.7386 40.3019C85.8523 40.1887 85.8523 40.0755 85.8523 39.8491C85.8523 39.7925 85.9091 39.7359 85.9659 39.7359L86.0795 39.7925C86.0795 39.7925 86.1364 39.5661 86.1932 39.2264C86.25 39 86.3636 38.8302 86.5909 38.7736L86.5341 38.5472C86.25 38.6604 86.0227 38.7736 85.7386 38.8868C85.2273 39.1132 85 39.283 85 39.3963V39.4529C84.8295 39.5095 84.6591 39.6227 84.4318 39.9057C84.0341 40.1321 83.5795 40.5283 83.0682 41.0944C82.5 41.717 82.2727 42.1698 82.3864 42.4529C82.2727 42.5095 82.1023 42.6227 81.875 42.8491C81.7614 42.9623 81.4204 43.0755 80.9659 43.1887C80.9659 43.1321 80.9091 43.0189 80.7386 42.9623C80.5682 42.9057 80.5114 42.8491 80.5114 42.7925C80.5114 42.8491 80.5682 42.7359 80.7386 42.3963C80.7386 42.2264 80.9659 41.7736 81.5341 40.9812C82.0454 40.1887 82.3295 39.6227 82.3295 39.3397C82.3295 39.283 82.3295 39.1698 82.2727 39.1132C82.2159 39 82.2159 38.9434 82.2159 38.8868C82.4432 38.5472 82.6704 38.434 82.8977 38.434C83.4659 38.434 83.75 38.5472 83.8636 38.717C83.9773 39 84.0341 39.1698 84.0909 39.1698C84.375 38.9434 84.8864 38.5472 85.7386 38.0944C86.5909 37.5849 87.1023 37.3585 87.3864 37.3585H87.8977C87.9545 37.3585 87.9545 37.3585 87.9545 37.4151C87.9545 37.4717 88.0114 37.5283 88.125 37.5283C88.125 37.5849 88.1818 37.6415 88.1818 37.6981Z" fill="#221F20"/>
<path id="Vector_10" fill-rule="evenodd" clip-rule="evenodd" d="M80.625 37.9811C80.0568 38.717 79.4886 39.3962 78.9772 40.1321C78.125 41.2076 77.7272 41.8868 77.7272 42.2264V42.8491C77.6136 42.9057 77.6136 42.9623 77.6704 43.0189C77.5 43.0189 77.3295 43.0755 77.1591 43.1887C77.0454 43.1321 76.8181 43.0189 76.5341 42.9057C76.7045 42.3962 77.0454 41.6038 77.6136 40.5849C77.7272 40.4717 77.9545 40.1887 78.125 39.9057C78.125 39.8491 78.2386 39.6227 78.4659 39.283C78.6932 38.9434 78.8068 38.717 78.75 38.6604C78.9772 38.6038 79.0909 38.5472 79.0909 38.434C79.0909 38.2642 78.9772 38.0944 78.75 37.9811C79.0341 37.8679 79.375 37.6415 79.8295 37.3585C79.9432 37.3585 80.0568 37.3585 80.1704 37.4151C80.2841 37.4717 80.3977 37.5849 80.4545 37.7547C80.5113 37.9245 80.5681 38.0378 80.625 37.9811ZM82.6136 34.8679C82.5 34.9811 82.3863 35.0944 82.2727 35.3208H81.4204C81.3636 35.3208 81.25 35.2076 81.1363 35.0378C81.0227 34.8679 80.9659 34.7547 80.9659 34.7547C81.0795 34.6415 81.1931 34.5283 81.3636 34.4151C81.4772 34.3019 81.6477 34.2453 81.875 34.2453C81.9886 34.3019 82.2727 34.4717 82.6136 34.8679Z" fill="#221F20"/>
<path id="Vector_11" fill-rule="evenodd" clip-rule="evenodd" d="M64.1478 38.4339C64.1478 38.3773 64.0341 38.5472 63.8069 38.8868C63.7501 39.2264 63.2955 40.0755 62.3864 41.4339C61.5341 42.7358 61.1932 43.4717 61.3069 43.6981C61.1364 43.8113 60.9091 43.8679 60.7387 43.8679C60.6819 43.8679 60.5682 43.8679 60.3978 43.8113C60.2841 43.7547 60.1705 43.7547 60.0569 43.7547C60.0569 43.6981 60.1705 43.5849 60.2841 43.4717C60.2841 43.4151 60.2273 43.4151 60.1705 43.4717C60.6819 42.6226 61.3637 41.3207 62.2728 39.6226H62.3296C62.3296 39.6226 62.3864 39.566 62.3864 39.5094C62.3864 39.4528 62.3864 39.3962 62.3864 39.3962L62.2728 39.4528H62.1591C62.1023 39.4528 62.0455 39.5094 62.0455 39.5094C61.9319 39.6226 61.7614 39.7358 61.4773 39.9056C61.1932 40.0755 61.0796 40.1321 61.0796 40.1321C61.0796 40.1321 61.0796 40.1887 61.1364 40.2453C60.7387 40.3019 60.3978 40.5283 60.0569 40.9245C59.8864 40.9245 59.6591 41.0377 59.4319 41.2075C59.2046 41.4339 59.0341 41.4906 58.9773 41.4906C58.9205 41.4906 58.6364 41.717 58.1251 42.1698C57.6705 42.6226 57.3864 42.9056 57.3296 42.9056H56.9887C56.8751 42.9056 56.7046 42.7924 56.6478 42.6226C56.5341 42.4528 56.4205 42.283 56.1932 42.283C56.4205 42.1698 56.6478 41.9434 56.9887 41.6604C56.9887 41.4905 57.1023 41.2641 57.3296 41.0377L57.2728 40.9245C57.2728 40.8113 57.3864 40.5849 57.5569 40.3019C57.7273 40.0189 57.841 39.7924 57.841 39.6226C57.841 39.566 57.841 39.4528 57.7841 39.3396C57.7841 39.283 57.7841 39.1698 57.841 39C58.1251 38.717 58.4091 38.5472 58.8069 38.4906C59.2046 38.6604 59.4319 38.8302 59.4319 39.0566C59.4319 39 59.091 39.566 58.4091 40.6981L58.5228 40.8113C59.4319 40.2453 60.7955 39.3396 62.5569 38.1509V38.0943C62.5569 38.0377 62.5569 38.0377 62.5001 38.0943C62.5569 38.0943 62.6705 38.0377 62.7273 37.9245C62.7841 37.8113 62.8978 37.7547 63.0114 37.7547C63.0682 37.7547 63.1819 37.7547 63.2955 37.7547C63.4091 37.7547 63.5228 37.7547 63.5796 37.7547C63.9773 38.2641 64.1478 38.4339 64.1478 38.4339Z" fill="#221F20"/>
<path id="Vector_12" fill-rule="evenodd" clip-rule="evenodd" d="M59.1477 32.6038C59.1477 32.717 59.034 32.8868 58.8068 33.1698C58.5795 33.4528 58.3522 33.6226 58.2386 33.6792L58.4659 33.7358C57.5568 34.9811 56.7613 36.4528 56.0795 38.0377C55.909 38.2075 55.6818 38.4906 55.4545 39C55.4545 39.0566 55.4545 39.0566 55.4545 39.1132C55.4545 39.2264 55.3977 39.3396 55.284 39.5094C55.1704 39.6792 55.1136 39.7925 55.1136 39.8491C54.8863 40.3585 54.0909 41.5472 53.5227 42.566L53.8068 42.7358V43.0189L53.2386 43.6415C53.0681 43.8679 52.7272 43.9811 52.2159 43.9811C52.159 43.9811 52.1022 43.9811 52.0454 43.9245C51.9886 43.8679 51.9318 43.8679 51.9318 43.8679C51.9318 43.6415 51.9886 43.3585 52.2159 43.0189C52.4431 42.6226 52.5568 42.3396 52.6136 42.2264L52.784 42.283C52.784 42.0566 53.2386 41.3774 53.4659 40.9811C53.6931 40.6415 53.7499 40.4151 53.7499 40.3585C53.8636 40.0755 54.0909 39.6792 54.4318 39.2264C54.4318 39.0566 54.5454 38.8868 54.7159 38.6038C54.8863 38.3774 54.9999 38.0943 54.9999 37.8679C55.1704 37.8113 55.284 37.7547 55.3977 37.6981C55.3409 37.6981 55.3409 37.6415 55.3409 37.5849C55.3409 37.4717 55.3977 37.2453 55.5681 37.0189C55.6818 36.7925 55.7954 36.6226 55.7954 36.5094C56.1931 35.9434 56.534 35.434 56.7613 34.9811C56.8749 34.5849 57.1022 34.0189 57.4431 33.2264C57.5568 33.1132 57.6704 33.0566 57.6704 32.9434L57.6136 32.8302V32.6038C57.784 32.6038 57.8977 32.5472 57.9545 32.4906L57.784 32.434C58.0681 32.2641 58.3522 32.1509 58.6931 32.1509H58.7499C58.7499 32.1509 58.7499 32.2075 58.6931 32.2075L58.6363 32.2641C58.6363 32.2641 58.6363 32.2641 58.6931 32.2641C58.9204 32.2075 59.1477 32.3774 59.1477 32.6038Z" fill="#221F20"/>
<path id="Vector_13" fill-rule="evenodd" clip-rule="evenodd" d="M69.3182 37.9245C69.3182 37.9811 69.3182 38.0377 69.2614 38.0943C69.2045 38.1509 69.2045 38.2075 69.2045 38.2641C68.9773 38.2641 68.8636 38.3207 68.9205 38.4905C68.8636 38.4905 68.75 38.4905 68.6364 38.4905C68.5227 38.4905 68.125 38.4905 68.0682 38.4905C68.0114 38.0377 66.7045 38.7736 66.5909 39.1698C66.5341 39.283 66.5909 39.6226 66.7045 39.7924C66.8182 39.9056 66.8182 39.849 66.875 39.9056C67.1023 40.4151 68.125 41.4906 67.8409 42.0566C67.8409 42.1132 67.8409 42.0566 67.7841 42.0566C67.8409 42.1132 67.2727 42.6226 67.1023 42.7358C66.7614 42.9622 67.3864 42.7924 67.0455 42.849L65.2841 43.4717L65.0568 43.5283C65.0568 43.5283 64.9432 43.4717 64.5455 43.4717C64.4886 43.4717 64.4318 43.4717 64.375 43.4717C64.3182 43.4717 64.2614 43.5283 64.2045 43.5283C64.1477 43.5283 64.0341 43.3019 63.9205 43.1321C63.8636 42.9622 63.8068 42.849 63.75 42.6792L63.8636 42.5094C63.9205 42.5094 64.0341 42.5094 64.5455 42.6226L64.6591 42.7924L64.9432 42.849C65.0568 42.849 66.4773 42.3396 66.6477 42.283L66.7045 42.2264C66.875 42 66.9318 42.0566 66.875 41.717C66.875 41.6038 66.7045 41.0377 66.25 40.5283C66.0227 40.2453 65.9091 40.1321 65.7955 39.9622C65.7386 39.9056 65.6818 39.6226 65.625 39.5094C65.625 39.3962 65.6818 39.2264 65.7955 39.0566C65.9091 38.8302 66.1364 38.6604 66.5909 38.3773C66.875 38.2075 67.0455 38.0943 67.3864 37.9245C67.5 37.8679 67.6705 37.7547 68.125 37.5283C68.1818 37.5283 68.1818 37.4717 68.125 37.4717C68.1818 37.4717 68.3523 37.4717 68.5227 37.4717C68.6932 37.4717 68.8636 37.4717 68.9205 37.4717C69.0341 37.4717 69.1477 37.5283 69.2614 37.6981C69.2045 37.7547 69.2614 37.8679 69.3182 37.9245Z" fill="#221F20"/>
<path id="Vector_14" fill-rule="evenodd" clip-rule="evenodd" d="M76.1932 40.1887C75.5114 41.5472 73.75 42.4528 73.0114 43.0189C72.8409 43.1887 72.6705 43.2453 72.4432 43.2453C72.3864 43.2453 72.2727 43.3019 72.1023 43.3585C71.9318 43.4717 71.8182 43.4717 71.7614 43.4717C71.7045 43.4717 71.5909 43.5283 71.3636 43.5849C71.1932 43.6415 71.0227 43.6981 70.9659 43.6981C70.9091 43.6981 70.8523 43.6981 70.8523 43.6981L70.9091 43.7547C70.7386 43.6981 70.3977 43.8679 69.8864 43.6415C69.8864 43.5849 69.9432 43.4717 69.9432 43.3019L69.7727 43.1887C69.7727 43.2453 69.7159 43.3585 69.6023 43.5849C69.4886 43.8113 69.4318 43.9811 69.4318 43.9811C69.2045 44.3774 68.9773 44.717 68.6932 45.1132C68.4091 45.566 67.9545 46.5849 67.9545 46.9245C67.7841 47.0377 67.5 47.3208 67.1591 47.8868C67.1591 47.8868 66.9886 47.8868 66.7045 47.8868C66.7045 47.8868 66.7614 47.8302 66.8182 47.8302C66.8182 47.8302 66.7614 47.8302 66.6477 47.8302C66.5341 47.8302 66.4773 47.8302 66.3636 47.7736C66.3636 47.717 66.3636 47.717 66.3068 47.6038C66.25 47.5472 66.25 47.4906 66.25 47.434C66.25 47.2642 66.4773 46.9811 66.9886 46.6981L66.875 46.6415C67.1023 46.3585 67.6705 45.3962 67.9545 44.8868C68.2955 44.3208 68.5227 43.9245 68.6932 43.6981C68.6932 43.5283 69.0341 42.7359 69.6591 41.3208C69.8295 41.2076 70.0568 40.9245 70.2273 40.4717C70.5114 39.7359 70.625 39.3396 70.9091 38.6038H70.9659C71.0227 38.6038 71.0227 38.434 71.0227 38.0943C71.1932 37.9811 71.4205 37.9245 71.5909 37.8113C71.7614 37.7547 71.9886 37.6981 72.2727 37.6981C72.4432 37.8679 72.8977 37.6415 73.5795 37.8113C74.1477 37.9245 74.4886 38.0943 74.6023 38.3208C75.3409 38.717 75.9091 39.1132 75.9091 39.7925C76.0227 39.9623 76.0795 40.0755 76.1932 40.1887ZM75.0568 40.0189C75.0568 39.6226 74.7727 39.283 74.2045 38.9434C73.6364 38.6038 73.0682 38.7736 72.5568 38.7736C72.3295 38.7736 72.2159 38.8302 72.2159 38.9434C72.2159 39 72.2727 39 72.2727 39.0566C72.2727 39.6226 71.1932 40.7547 70.9091 41.3774C70.5114 42.1698 70.2841 42.6226 70.1136 42.7359C70.1136 42.7925 70.1705 42.7925 70.2273 42.7925C70.1136 42.9057 70.0568 43.0189 70.0568 43.1321L70.1136 43.3019C70.1705 43.1321 70.2841 43.0755 70.4545 43.0189C70.6818 43.0189 70.7955 42.9057 71.1932 42.9623L71.4205 43.0755L71.3636 43.0189L71.4773 42.9623C71.5341 42.9623 71.6477 42.9057 71.8182 42.7925C71.8182 42.7359 71.7614 42.7925 71.7614 42.9057H71.8182C72.0455 42.8491 72.3295 42.7359 72.6136 42.6227C72.7273 42.4528 72.8977 42.4528 73.3523 42.2264C73.9205 41.9434 74.6591 41.2076 74.7159 41.1509L74.6023 41.0377C75.1136 40.5283 75.0568 40.4151 75.0568 40.0189Z" fill="#221F20"/>
<path id="Vector_15" fill-rule="evenodd" clip-rule="evenodd" d="M121.364 33.849C120.966 34.1321 121.023 34.0754 121.193 34.3585C120.909 34.5283 120.739 34.8679 120.739 35.4339L120.454 35.8302C120.454 36.1698 120.227 36.5094 119.773 36.9056L120.057 37.0188C119.716 37.1887 119.375 37.8113 118.977 38.717C118.636 39.6226 118.466 40.0754 118.352 40.1321C118.409 40.1321 118.466 40.1887 118.636 40.2453C118.466 40.3019 118.295 40.5283 118.182 40.9245C118.068 41.0377 118.011 41.1509 118.011 41.3207C118.011 41.5471 118.068 41.6604 118.239 41.7736C118.125 41.8302 118.011 41.8868 117.841 42L118.011 42.1132C117.557 42.7358 117.386 43.1887 117.386 43.4717C117.329 43.6981 117.159 43.9245 116.875 44.2075C116.591 44.2075 116.307 44.3773 116.193 44.5471C116.079 44.3773 115.852 44.2075 115.568 44.1509V43.7547C116.193 42.9622 116.477 42.4528 116.477 42.1132C117.386 40.6415 117.954 39.283 118.295 38.0943L118.579 37.9811C118.579 37.9245 118.523 37.8113 118.409 37.6981C118.579 37.6415 118.75 37.5283 118.92 37.1887C119.034 36.849 119.091 36.6792 119.034 36.5094C119.318 36.3396 119.545 36 119.659 35.6038C119.716 35.2641 119.829 34.9245 119.943 34.5849C120.227 34.4151 120.284 34.3585 120.454 33.7358C120.568 33.6792 120.795 33 120.852 32.8302C120.909 32.6038 121.25 31.9245 121.591 32.0377C122.443 32.3207 121.136 33 121.364 33.849Z" fill="#221F20"/>
<path id="Vector_16" fill-rule="evenodd" clip-rule="evenodd" d="M129.943 33.6226C129.773 33.6792 129.432 33.6792 128.977 33.6226C128.466 33.566 128.182 33.5094 128.011 33.4528V33.6226C125.795 33.5094 122.557 33.6792 119.829 33.9056C119.545 33.849 118.977 33.849 118.182 33.9056C118.125 33.9056 118.068 33.9622 118.011 33.9622C117.841 34.0189 117.614 34.0189 117.329 34.0189C117.045 34.0189 116.875 34.0189 116.818 34.0755C115.909 34.1321 114.204 34.2453 112.386 34.3019L112.273 34.5849L111.818 34.7547L110.625 34.6415C110.227 34.6415 109.886 34.4151 109.659 33.9622C109.602 33.9056 109.659 33.849 109.716 33.7358C109.773 33.6792 109.773 33.6226 109.773 33.6226C110.114 33.5094 110.625 33.4528 111.193 33.3962C111.932 33.3962 112.386 33.3396 112.557 33.283L112.5 33.4528C112.841 33.3396 113.352 33.283 113.92 33.283C114.545 33.283 115.284 33.2264 115.398 33.1698C115.909 33.1132 116.534 33.1132 117.386 33.1698C117.614 33.1132 117.954 33.0566 118.409 33.1132C118.864 33.1132 119.261 33.0566 119.602 33C119.773 33.1132 119.886 33.1698 120 33.2264C120 33.1698 120.057 33.1698 120.114 33.1132C120.341 33.0566 120.625 33 121.023 33C121.42 33 121.704 32.9434 121.932 32.8868C122.954 32.9434 123.864 32.9434 124.659 32.8868C125.284 32.7736 126.989 32.6038 128.295 32.4906C128.466 32.5472 128.636 32.5472 128.807 32.5472L128.977 32.4339L129.318 32.3207C129.432 32.4339 129.489 32.4906 129.602 32.5472V32.3773C130 32.4906 130.341 32.717 130.454 32.9434L130.511 33C130.511 33 130.454 33.0566 130.341 33C130.284 33 130.284 33 130.284 33C130.398 33.283 130.284 33.5094 129.943 33.6226Z" fill="#221F20"/>
<path id="Vector_17" fill-rule="evenodd" clip-rule="evenodd" d="M143.466 42.0566C143.977 41.1509 144.148 40.3585 144.318 39.6792H144.375C144.375 39.6792 144.318 39.566 144.261 39.5094C144.432 39.4528 144.545 39.4528 144.545 39.4528C144.659 39.3396 144.716 39.1698 144.716 39.0566C144.716 39 144.659 38.9434 144.659 38.8868C144.829 38.7736 145 38.6038 145.057 38.3773C145.114 38.2075 145.17 37.9811 145.227 37.7547C145.398 37.6415 145.511 37.4151 145.568 37.0755C145.625 37.0189 145.625 37.0755 145.625 37.0189C145.682 36.9056 145.682 36.7358 145.739 36.6792C145.568 36.6226 143.807 36.6226 143.466 36.1132C143.579 35.6038 144.545 35.9434 144.886 35.717C145 35.6604 145.682 35.8302 145.852 35.8302C146.023 35.8302 146.079 35.8868 146.136 35.8868C146.307 35.5472 146.42 35.2075 146.591 34.5283C146.761 34.3585 146.591 34.5283 146.932 33.566C147.216 32.7736 147.5 32.2075 147.784 32.1509C147.841 32.0943 148.068 32.0377 148.182 32.0377C148.295 32.0377 148.523 32.0943 148.579 32.2641C148.636 32.3773 148.75 32.6604 148.807 32.7736C148.579 33.0566 148.352 33.4528 148.125 33.7924C147.841 34.1887 147.67 34.6415 147.443 35.0377C147.386 35.2075 147.273 35.4339 147.273 35.6604L147.102 35.7736H147.159C147.273 35.7736 147.329 35.7736 147.557 35.717C147.614 35.717 147.727 35.717 147.898 35.717C148.068 35.717 148.068 35.717 148.125 35.717C148.125 35.717 148.239 35.717 148.239 35.6604H148.295C148.352 35.6604 148.295 35.6604 148.352 35.6604C148.409 35.6604 148.523 35.6604 148.579 35.717H148.636H148.693H148.75C148.75 35.717 148.75 35.717 148.807 35.717C148.864 35.717 149.091 35.717 149.261 35.717C149.432 35.717 149.545 35.717 149.659 35.717C149.829 35.717 150 35.8302 149.943 36.2264C149.829 36.283 149.773 36.283 149.773 36.283C149.773 36.3396 149.773 36.3396 149.773 36.6226L149.432 36.3396C149.318 36.3396 149.148 36.3962 148.864 36.3962C148.807 36.3962 148.807 36.4528 148.693 36.4528C148.579 36.5094 148.466 36.5094 148.409 36.5094C148.409 36.5094 148.295 36.5094 148.239 36.4528V36.5094C148.125 36.5094 147.727 36.5094 147.67 36.5094H147.614C147.557 36.5094 147.5 36.566 147.443 36.566C147.386 36.6226 147.329 36.566 147.216 36.566C147.102 36.566 147.102 36.6226 146.989 36.6226C146.989 36.6226 146.875 36.6792 146.818 36.6792C146.704 36.7358 146.704 36.7358 146.534 36.9623C146.42 37.1321 146.477 37.1887 146.477 37.3019C146.136 37.5283 146.25 37.5283 146.364 37.7547C146.136 37.8679 146.023 37.8679 146.023 38.3207L145.852 38.5472C145.852 38.7736 145.739 38.8868 145.625 39L145.852 39.1132C145.682 39.2264 145.454 39.1698 145.114 39.9622C144.943 40.4717 144.829 40.6981 144.829 40.7547C144.829 40.7547 145.17 40.9245 145.227 40.9811C145.227 41.0377 145 41.0377 144.886 41.0377C144.829 41.0377 144.773 41.0377 144.773 41.0377C144.716 41.0943 144.716 41.1509 144.659 41.3207C144.602 41.3773 144.602 41.3773 144.602 41.4339C144.602 41.4905 144.602 41.4339 144.602 41.4906C144.602 41.4906 144.773 41.5472 144.886 41.6604C144.886 41.7736 144.602 42.0566 144.773 42.5094C144.773 42.566 145.114 42.849 145.398 43.0189C145.114 43.3019 144.034 43.6415 143.636 43.6981C143.239 43.5283 143.011 43.3585 143.011 43.1321C142.954 43.3019 143.125 42.7924 143.466 42.0566Z" fill="#221F20"/>
<path id="Vector_18" fill-rule="evenodd" clip-rule="evenodd" d="M63.5228 11.6604H57.5569V14.2641H63.5228H63.6932H63.8637H64.0341H64.2046H64.375H64.4887H64.6023H64.716H64.8296H64.9432L65.0569 14.2075L65.1705 14.1509L65.2841 14.0943L65.3978 14.0377L65.4546 13.9811L65.5114 13.9245L65.5682 13.8679L65.625 13.8113L65.6819 13.7547L65.7387 13.6981L65.7955 13.6415L65.8523 13.5849L65.9091 13.5283L65.966 13.4717L66.0228 13.4151V13.3585V13.3019V13.2453V13.1887V13.1321V13.0755V13.0189V12.9057V12.8491V12.7924V12.7358V12.6792V12.6226V12.566L65.966 12.5094L65.9091 12.4528L65.8523 12.3962L65.7955 12.3396L65.7387 12.283L65.6819 12.2264L65.625 12.1698L65.5682 12.1132L65.5114 12.0566L65.4546 12L65.3978 11.9434L65.2841 11.8868L65.1705 11.8302L65.0569 11.7736L64.9432 11.717H64.8296H64.716H64.6023H64.4887H64.375H64.2046H64.0341H63.8637H63.6932L63.5228 11.6604ZM57.5 17.717V20.434H63.5796H63.75H63.9205H64.091H64.2614H64.4319H64.5455H64.6591H64.7728H64.8864H65L65.1137 20.3774L65.2273 20.3208L65.341 20.2641L65.4546 20.2075L65.5114 20.1509L65.5682 20.0943L65.625 20.0377L65.6819 19.9811L65.7387 19.9245L65.7955 19.8679L65.8523 19.8113L65.9091 19.7547L65.966 19.6981L66.0228 19.6415L66.0796 19.5849V19.5283V19.4717V19.4151V19.3585V19.3019V19.2453V19.1321V19.0189V18.9623V18.9057V18.8491V18.7924V18.7358V18.6792L66.0228 18.6226L65.966 18.566L65.9091 18.5094L65.8523 18.4528L65.7955 18.3962L65.7387 18.3396L65.6819 18.283L65.625 18.2264L65.5682 18.1698L65.5114 18.1132L65.4546 18.0566L65.341 18L65.2273 17.9434L65.1137 17.8868L65 17.8302L64.8864 17.7736H64.7728H64.6591H64.5455H64.4319H64.2614H64.091H63.9205H63.75H63.5796H57.5V17.717ZM65.2841 8.20754H65.4546H65.625H65.7955H65.966H66.1364H66.3069H66.4773H66.6478H66.8182H66.9887H67.1591H67.3296H67.5H67.6705H67.7841L67.8978 8.26415L68.0114 8.32075L68.125 8.37736L68.2387 8.43396L68.3523 8.49056L68.466 8.54717L68.5796 8.60377L68.6932 8.66037L68.8637 8.71698L69.0341 8.77358L69.2046 8.83019L69.375 8.88679L69.5455 8.94339L69.716 9L69.8296 9.1132L69.9432 9.22641L70.0569 9.33962L70.1705 9.45283L70.2841 9.56603L70.3978 9.67924L70.5114 9.79245L70.625 9.90566L70.7387 10.0189L70.8523 10.1321L70.966 10.2453L71.0228 10.3585L71.0796 10.4717L71.1364 10.5849L71.1932 10.6981L71.25 10.8679L71.3069 11.0377L71.3637 11.2075L71.4205 11.3774L71.4773 11.5472L71.5341 11.717V11.8868V12.0566V12.2264V12.3962V12.566V12.7358V12.9057V13.0755V13.2453L71.4773 13.4151L71.4205 13.5849L71.3637 13.6981L71.3069 13.8113L71.25 13.9245L71.1932 14.0377L71.1364 14.1509L71.0796 14.2641L71.0228 14.3774L70.9091 14.4906L70.7955 14.6038L70.6819 14.717L70.5682 14.8302L70.4546 14.9434L70.341 15.0566L70.2273 15.1698L70.1137 15.283L70 15.3962L69.8296 15.5094L69.6591 15.6226L69.4887 15.7358L69.3182 15.8491L69.1478 15.9623L69.3182 16.0189L69.4887 16.1321L69.6591 16.2453L69.8296 16.3585L70 16.4717L70.1705 16.5849L70.2841 16.6981L70.3978 16.8113L70.5114 16.9245L70.625 17.0377L70.7387 17.1509L70.8523 17.2641L70.966 17.3774L71.0796 17.4906L71.1932 17.6038L71.25 17.717L71.3069 17.8302L71.3637 17.9434L71.4205 18.0566L71.4773 18.1698L71.5341 18.3396L71.591 18.5094V18.6792V18.8491V19.0189V19.1887V19.3585V19.5283V19.6981V19.8679V20.0377V20.2075V20.3774V20.5472L71.5341 20.6604L71.4773 20.7736L71.4205 20.8868L71.3637 21L71.3069 21.1132L71.25 21.2264L71.1932 21.3396L71.1364 21.4528L71.0796 21.566L71.0228 21.6792L70.966 21.7924L70.9091 21.9057L70.7955 22.0189L70.6819 22.1321L70.5682 22.2453L70.4546 22.3585L70.341 22.4717L70.2273 22.5849L70.1137 22.6981L70 22.8113L69.8864 22.8679L69.7728 22.9245L69.6591 22.9811L69.5455 23.0377L69.4319 23.0943L69.3182 23.1509L69.2046 23.2075L69.091 23.2641L68.9773 23.3208L68.8637 23.3774L68.75 23.434L68.6364 23.4906L68.5228 23.5472L68.4091 23.6038L68.2955 23.6604L68.125 23.717L67.9546 23.7736L67.7841 23.8302L67.6137 23.8868H67.4432H67.2728H67.1023H66.9319H66.7614H66.591H66.4205H66.25H66.0796H65.9091H65.7387H65.5682H65.3978H65.2273H65H64.7728H64.5455H64.3182H52.3296V8.15094H63.466H63.6932H63.9205H64.1478H64.375H64.6023H64.8296H65.0569H65.2273L65.2841 8.20754Z" fill="#F05A22"/>
<path id="Vector_19" fill-rule="evenodd" clip-rule="evenodd" d="M119.261 17.0377H124.148L121.648 12.4528L119.261 17.0377ZM115.625 23.8302H110L119.261 8.15094H124.375L133.807 23.8302H127.955L126.023 20.434H117.386L115.625 23.8302Z" fill="#F05A22"/>
<path id="Vector_20" fill-rule="evenodd" clip-rule="evenodd" d="M80.2841 17.0377H85.1704L82.6704 12.4528L80.2841 17.0377ZM76.6477 23.8302H71.0227L80.2841 8.15094H85.3977L94.8295 23.8302H88.9773L87.0454 20.434H78.4091L76.6477 23.8302Z" fill="#F05A22"/>
<path id="Vector_21" fill-rule="evenodd" clip-rule="evenodd" d="M101.818 23.8302H95.3977V20.434H101.25H101.477H101.648H101.818L101.989 20.3774H102.102H102.273H102.443H102.614L102.727 20.3208H102.898H103.011L103.125 20.2641H103.295H103.409L103.523 20.2075H103.636L103.75 20.1509H103.864L103.977 20.0943H104.034L104.148 20.0377L104.261 19.9811H104.318L104.375 19.9245L104.489 19.8679H104.545L104.602 19.8113L104.659 19.7547L104.716 19.6981H104.773L104.83 19.6415L104.886 19.5849L104.943 19.5283L105 19.4717L105.057 19.4151L105.114 19.3585V19.3019L105.17 19.2453L105.227 19.1887V19.1321L105.284 19.0189V18.9623L105.341 18.9057V18.8491L105.398 18.7358V18.6792L105.455 18.566V18.5094L105.511 18.3962V18.3396V18.2264L105.568 18.1132V18V17.8868L105.625 17.7736V17.6604V17.5472V17.434V17.2641V17.1509V17.0377L105.682 16.8679V16.7547V8.15094H111.023V17.434V17.6038V17.8302V18V18.1698L110.966 18.3396V18.5094V18.6792L110.909 18.8491V19.0189L110.852 19.1887V19.3585L110.795 19.4717V19.6415L110.739 19.8113L110.682 19.9245V20.0943L110.625 20.2075L110.568 20.3774L110.511 20.4906L110.455 20.6038L110.398 20.7736L110.341 20.8868L110.284 21L110.17 21.1132L110.114 21.2264L110.057 21.3396L110 21.4528L109.886 21.566L109.83 21.6226L109.716 21.7358L109.659 21.8491L109.545 21.9057L109.432 22.0755L109.261 22.1887L109.091 22.3019L108.977 22.4151L108.807 22.5283L108.636 22.5849L108.466 22.6981L108.239 22.8113L108.068 22.8679L107.841 22.9811L107.67 23.0377L107.443 23.1509L107.216 23.2075L106.989 23.2641L106.761 23.3208L106.534 23.3774L106.307 23.434L106.08 23.4906L105.795 23.5472L105.511 23.6038L105.284 23.6604H105L104.716 23.717L104.432 23.7736H104.091H103.807L103.523 23.8302H103.182H102.841H102.5L102.216 23.8868L101.818 23.8302Z" fill="#F05A22"/>
<path id="Vector_22" fill-rule="evenodd" clip-rule="evenodd" d="M140.852 23.8302H134.375V20.434H140.284H140.455H140.625H140.795L140.966 20.3774H141.136H141.25H141.42H141.591L141.705 20.3208H141.875H141.989L142.102 20.2641H142.273H142.386L142.5 20.2075H142.614L142.727 20.1509H142.841L142.955 20.0943H143.011L143.125 20.0377L143.239 19.9811H143.295L143.409 19.9245L143.466 19.8679H143.523L143.58 19.8113L143.693 19.7547L143.75 19.6981H143.807V19.6415L143.864 19.5849L143.92 19.5283L143.977 19.4717L144.034 19.4151L144.091 19.3585L144.148 19.3019V19.2453L144.205 19.1887V19.1321L144.261 19.0189V18.9623L144.318 18.9057L144.375 18.8491V18.7358L144.432 18.6792V18.566V18.5094L144.489 18.3962V18.3396L144.545 18.2264V18.1132V18V17.8868L144.602 17.7736V17.6604V17.5472V17.434V17.2641L144.659 17.1509V17.0377V16.8679V16.7547V8.15094H150V17.434V17.6038V17.8302V18V18.1698L149.943 18.3396V18.5094V18.6792L149.886 18.8491V19.0189V19.1887L149.83 19.3585L149.773 19.4717V19.6415L149.716 19.8113L149.659 19.9245V20.0943L149.602 20.2075L149.545 20.3774L149.489 20.4906L149.432 20.6038L149.375 20.7736L149.318 20.8868L149.261 21L149.205 21.1132L149.091 21.2264L149.034 21.3396L148.977 21.4528L148.864 21.566L148.807 21.6226L148.693 21.7358L148.636 21.8491L148.523 21.9057L148.409 22.0755L148.239 22.1887L148.068 22.3019L147.955 22.4151L147.784 22.5283L147.614 22.5849L147.443 22.6981L147.216 22.8113L147.045 22.8679L146.875 22.9811L146.648 23.0377L146.42 23.1509L146.193 23.2075L146.023 23.2641L145.739 23.3208L145.511 23.3774L145.284 23.434L145.057 23.4906L144.773 23.5472L144.489 23.6038L144.261 23.6604H143.977L143.693 23.717L143.409 23.7736H143.125H142.784L142.5 23.8302H142.159H141.818H141.534L141.193 23.8868L140.852 23.8302Z" fill="#F05A22"/>
</g>
</g>
<defs>
<clipPath id="clip0_684_1266">
<rect width="150" height="48" fill="white"/>
</clipPath>
</defs>
</svg>
