<svg width="150" height="66" viewBox="0 0 150 66" fill="none" xmlns="http://www.w3.org/2000/svg">
<g id="Frame" clip-path="url(#clip0_684_1158)">
<g id="Group">
<path id="Vector" d="M90.7296 11.484H80.8424V54.1464H111.165V45.8304H90.7296V11.484Z" fill="#6D6E70"/>
<g id="Group_2">
<path id="Vector_2" d="M132.869 37.884H140.906V45.3552C139.425 45.9096 136.544 46.4904 133.794 46.4904C124.912 46.4904 121.951 41.976 121.951 32.8416C121.951 24.1032 124.78 18.9816 133.662 18.9816C138.606 18.9816 141.408 20.5392 143.735 23.496L149.868 17.8728C146.14 12.5136 139.584 10.9032 133.451 10.9032C119.625 10.9032 112.381 18.4272 112.381 32.7888C112.381 47.0712 118.937 54.8328 133.398 54.8328C140.033 54.8328 146.51 53.1432 150.026 50.688V29.9904H132.896V37.884H132.869Z" fill="#6D6E70"/>
</g>
<g id="Group_3">
<path id="Vector_3" d="M33.019 0C14.8044 0 0 14.7576 0 33C0 51.216 14.8044 66 33.019 66C51.2073 66 65.9323 51.3744 66.0909 33.264V32.736C65.9323 14.6256 51.2073 0 33.019 0Z" fill="url(#paint0_radial_684_1158)"/>
<path id="Vector_4" d="M10.6803 10.6656C-0.370144 21.7008 -1.48047 38.4912 8.19524 48.18C17.8974 57.8688 34.7109 56.76 45.7349 45.7248C56.7853 34.6632 57.9221 17.8728 48.2199 8.18399C43.8315 3.74878 37.9097 1.58398 31.7236 1.58398C24.4007 1.58398 16.6813 4.64639 10.6803 10.6656Z" fill="url(#paint1_linear_684_1158)"/>
<path id="Vector_5" d="M31.3271 47.784L32.1466 47.3088V19.4304L31.9351 19.1136L32.1466 19.0608V19.008H32.2788L34.7374 18.1632L35.1868 18.9288C35.1868 18.9288 35.2661 18.9816 35.2397 19.14L35.2132 44.5368H41.2407L41.7166 45.276C41.7695 45.3288 41.7959 45.3816 41.7959 45.5928V48.1536C41.7959 48.2856 41.7166 48.3648 41.6108 48.3648H32.411C32.1995 48.3648 31.988 48.2592 31.9616 48.2328L31.3271 47.784ZM61.1473 31.4688H40.712V34.7424L41.2143 35.4288C41.2143 35.4288 41.2672 35.508 41.3994 35.508H56.9704H58.4773H58.5037C57.6313 48.4176 46.7131 58.5288 33.6799 58.5288C27.0444 58.5288 20.8054 55.9416 16.0997 51.2952C11.4205 46.6224 8.82975 40.4448 8.82975 33.8448C8.82975 27.2448 11.2619 20.9088 15.9676 16.2624C20.6997 11.616 26.6214 9.16079 33.7328 9.00239L35.0811 8.97599H35.2397C35.3454 8.97599 35.4247 8.97599 35.4247 8.76479V6.07199C35.4247 5.88719 35.3454 5.78159 35.3454 5.78159L34.7374 5.01599L33.3891 5.20079L32.7018 5.43839C17.1836 5.43839 5.55164 18.4008 5.55164 33.8184C5.55164 41.2896 8.48607 48.312 13.7998 53.592C19.1135 58.872 26.1456 61.5384 33.6799 61.5384C41.2407 61.5384 48.3257 58.6872 53.6394 53.4072C58.9531 48.1272 61.8876 41.1048 61.8876 33.6336V32.0232L61.1473 31.4688ZM22.8939 18.5592C20.4353 18.5592 18.4526 20.5392 18.4526 22.968C18.4526 25.3968 20.4353 27.3768 22.8939 27.3768C25.3525 27.3768 27.3352 25.3968 27.3352 22.968C27.3352 20.5392 25.3525 18.5592 22.8939 18.5592Z" fill="url(#paint2_linear_684_1158)"/>
<path id="Vector_6" d="M32.0145 47.1504L31.3271 47.784H41.2408L40.6063 47.124L32.0145 47.1504Z" fill="#626D77"/>
<path id="Vector_7" d="M40.6063 45.144L41.2408 44.5368H34.7638L33.9972 45.144H40.6063Z" fill="#8699A3"/>
<path id="Vector_8" d="M34.7639 18.1632H31.3271L31.9616 18.7704H34.0237L34.7639 18.1632Z" fill="#8D9AA1"/>
<path id="Vector_9" d="M34.05 45.0912L34.7638 44.5368V18.1632L34.0236 18.7704L34.05 45.0912Z" fill="url(#paint3_linear_684_1158)"/>
<path id="Vector_10" d="M40.6063 45.144V47.124L41.2408 47.784V44.5368L40.6063 45.144Z" fill="url(#paint4_linear_684_1158)"/>
<path id="Vector_11" d="M31.3271 18.1632V47.784L32.0145 47.1504L31.9616 18.7704L31.3271 18.1632Z" fill="#B4BDC3"/>
<path id="Vector_12" d="M18.1617 22.4664C18.1617 24.8424 20.0916 26.7696 22.4709 26.7696C24.8501 26.7696 26.78 24.8424 26.78 22.4664C26.78 20.0904 24.8501 18.1632 22.4709 18.1632C20.0916 18.1632 18.1617 20.0904 18.1617 22.4664ZM26.1455 22.4664C26.1455 24.4728 24.5065 26.1096 22.4709 26.1096C20.4353 26.1096 18.7962 24.4728 18.7962 22.4664C18.7962 20.4336 20.4353 18.7968 22.4709 18.7968C24.5065 18.7968 26.1455 20.4336 26.1455 22.4664Z" fill="url(#paint5_linear_684_1158)"/>
<path id="Vector_13" d="M58.3451 34.0032L41.2143 33.9768L40.5798 34.6632H57.6842L58.0278 34.2936L58.3451 34.0032Z" fill="#505C61"/>
<path id="Vector_14" d="M41.2143 32.0496L60.3807 32.0232L61.0152 31.3632H40.5798L41.2143 32.0496Z" fill="#8F9CA4"/>
<path id="Vector_15" d="M61.0152 32.9736V31.3632L60.3543 32.0232V32.9736C60.3543 40.26 57.5256 47.124 52.3441 52.2984C47.189 57.4728 40.3155 60.2976 32.9662 60.2976C25.6698 60.2976 18.7963 57.4464 13.6412 52.2984C8.48611 47.124 5.63099 40.26 5.63099 32.9736C5.63099 17.8992 17.8975 5.64959 32.9662 5.64959H34.0237L34.6581 5.04239L32.9662 5.01599C17.5802 5.01599 5.02295 17.556 5.02295 32.9736C5.02295 40.4448 7.93095 47.4672 13.2182 52.7472C18.5055 58.0272 25.5111 60.9312 32.9926 60.9312C40.5006 60.9312 47.5326 58.0272 52.8199 52.7472C58.1072 47.4672 61.0152 40.4448 61.0152 32.9736Z" fill="url(#paint6_linear_684_1158)"/>
<path id="Vector_16" d="M34.05 7.68241L33.3362 7.65601H32.6489C26.0398 7.76161 19.8008 10.3752 15.0951 15.0744C10.3101 19.8528 7.6665 26.2152 7.6665 32.9736C7.6665 39.732 10.3101 46.0944 15.0687 50.8728C19.8008 55.572 26.0398 58.212 32.6753 58.2912H33.3362C46.4751 58.1328 57.4198 47.8104 58.3186 34.6632L58.345 33.9768L58.0278 34.2672L57.6841 34.6104C56.8117 47.52 45.9728 57.6312 33.019 57.6312C26.4099 57.6312 20.2238 55.044 15.5445 50.3976C10.8917 45.7248 8.32741 39.5472 8.32741 32.9472C8.32741 26.3472 10.8917 20.1432 15.5445 15.4968C20.2238 10.8504 26.4363 8.28961 33.019 8.28961L34.6845 8.31601L34.05 7.68241Z" fill="url(#paint7_linear_684_1158)"/>
<path id="Vector_17" d="M41.2143 32.0496L40.5798 31.3632V34.6632L41.2143 33.9768V32.0496Z" fill="#B4BDC3"/>
<path id="Vector_18" d="M34.05 7.68239L34.6845 8.31599V5.01599L34.05 5.64959V7.68239Z" fill="url(#paint8_linear_684_1158)"/>
<path id="Vector_19" d="M31.6972 18.5064V47.4144H40.8971V44.8272H34.3408V18.5064H31.6972ZM32.6489 5.35922C17.6066 5.54402 5.36658 17.8728 5.36658 32.9736C5.36658 40.3656 8.24814 47.2824 13.4561 52.5096C18.6641 57.7368 25.6168 60.588 32.9926 60.588C40.3948 60.588 47.3475 57.7104 52.5555 52.5096C57.7899 47.2824 60.645 40.3656 60.645 32.9736V31.7064H59.5611H40.9235V34.2672H58.0278C58.0278 34.32 58.0278 34.584 58.0278 34.6368C57.129 47.652 46.2636 58.0008 33.019 58.0008C26.3306 58.0008 20.0388 55.3872 15.2802 50.6616C10.5481 45.936 7.95734 39.6528 7.95734 32.9736C7.95734 26.268 10.5745 19.9848 15.2802 15.2592C20.0388 10.5336 26.3306 7.94642 33.019 7.94642C33.3098 7.94642 34.0236 7.94642 34.3408 7.94642V5.35922C34.0765 5.35922 33.6535 5.35922 33.3098 5.33282H32.6489V5.35922Z" fill="url(#paint9_radial_684_1158)"/>
<path id="Vector_20" d="M18.5055 22.4664C18.5055 24.6576 20.3032 26.4 22.4709 26.4C24.6387 26.4 26.4364 24.6312 26.4364 22.4664C26.4364 20.2752 24.6387 18.5064 22.4709 18.5064C20.2767 18.5064 18.5055 20.2752 18.5055 22.4664Z" fill="url(#paint10_radial_684_1158)"/>
<g id="Group_4">
<path id="Vector_21" d="M23.1847 19.2192C24.0836 19.2192 24.9295 19.536 25.5904 20.064C24.8767 19.1136 23.7399 18.5064 22.4709 18.5064C20.2767 18.5064 18.5055 20.2752 18.5055 22.4664C18.5055 23.7336 19.1135 24.8424 20.0388 25.5552C19.5365 24.8952 19.2193 24.0768 19.2193 23.1792C19.2193 20.988 20.9905 19.2192 23.1847 19.2192Z" fill="white"/>
<path id="Vector_22" d="M34.3408 5.38559C33.9972 5.38559 33.3363 5.35919 32.9926 5.35919C17.7652 5.35919 5.36658 17.7672 5.36658 32.9736C5.36658 40.3656 8.24814 47.2824 13.4561 52.5096C13.6147 52.668 13.7998 52.8264 13.9584 52.9848C9.04123 47.8104 6.31829 41.1048 6.31829 33.924C6.34472 18.7704 17.1043 6.15119 34.3408 5.38559Z" fill="white"/>
<path id="Vector_23" d="M34.3408 44.8536C34.3408 44.8536 36.2442 45.408 40.897 45.408V44.8536H34.3408Z" fill="white"/>
<path id="Vector_24" d="M34.3409 19.3248V18.5064H31.6973V47.4144C31.6973 47.4144 32.5168 43.0056 32.5168 19.2984H34.3409V19.3248Z" fill="white"/>
<path id="Vector_25" d="M60.6451 31.7328H40.8971V34.2936H41.6109V32.4456C58.821 32.4456 60.6451 31.7328 60.6451 31.7328Z" fill="white"/>
<path id="Vector_26" d="M58.0279 34.2936C58.0279 34.3464 58.0279 34.6368 58.0014 34.6632C57.129 47.6784 46.2637 58.0008 32.9926 58.0008C26.3042 58.0008 20.0124 55.3872 15.2538 50.6616C12.1607 47.5728 9.99297 43.824 8.8562 39.7056C11.8171 50.4768 21.7043 58.2912 33.4156 58.2912C45.9993 58.2912 57.6049 48.444 58.3451 34.2672H58.0279V34.2936Z" fill="white"/>
</g>
</g>
</g>
</g>
<defs>
<radialGradient id="paint0_radial_684_1158" cx="0" cy="0" r="1" gradientUnits="userSpaceOnUse" gradientTransform="translate(31.8156 31.9867) scale(34.446 34.3986)">
<stop stop-color="#BF0C3F"/>
<stop offset="0.5" stop-color="#BF0C3F"/>
<stop offset="0.753" stop-color="#BD0B3E"/>
<stop offset="0.8595" stop-color="#B6093A"/>
<stop offset="0.9381" stop-color="#A90534"/>
<stop offset="1" stop-color="#99002C"/>
</radialGradient>
<linearGradient id="paint1_linear_684_1158" x1="19.5083" y1="4.26303" x2="36.8983" y2="52.1074" gradientUnits="userSpaceOnUse">
<stop stop-color="#F38895"/>
<stop offset="0.0864005" stop-color="#EB7588"/>
<stop offset="0.3141" stop-color="#D84869"/>
<stop offset="0.5173" stop-color="#CA2752"/>
<stop offset="0.6866" stop-color="#C21344"/>
<stop offset="0.8011" stop-color="#BF0C3F"/>
<stop offset="1" stop-color="#BF0C3F"/>
</linearGradient>
<linearGradient id="paint2_linear_684_1158" x1="10.9923" y1="16.0839" x2="50.9216" y2="56.0683" gradientUnits="userSpaceOnUse">
<stop stop-color="#CD425C"/>
<stop offset="0.0892248" stop-color="#BE3351"/>
<stop offset="0.2493" stop-color="#AA1F43"/>
<stop offset="0.4304" stop-color="#9B1039"/>
<stop offset="0.648" stop-color="#930833"/>
<stop offset="1" stop-color="#900531"/>
</linearGradient>
<linearGradient id="paint3_linear_684_1158" x1="34.0196" y1="31.6357" x2="34.7531" y2="31.6357" gradientUnits="userSpaceOnUse">
<stop stop-color="#B4BDC3"/>
<stop offset="0.0397189" stop-color="#AEB7BD"/>
<stop offset="0.4983" stop-color="#6C737A"/>
<stop offset="0.8304" stop-color="#434950"/>
<stop offset="1" stop-color="#333940"/>
</linearGradient>
<linearGradient id="paint4_linear_684_1158" x1="40.5942" y1="46.1533" x2="41.2398" y2="46.1533" gradientUnits="userSpaceOnUse">
<stop stop-color="#B3BBC1"/>
<stop offset="0.0806004" stop-color="#A6AEB4"/>
<stop offset="0.5196" stop-color="#636B70"/>
<stop offset="0.8376" stop-color="#3A4246"/>
<stop offset="1" stop-color="#2A3236"/>
</linearGradient>
<linearGradient id="paint5_linear_684_1158" x1="19.4272" y1="19.4029" x2="25.5114" y2="25.4956" gradientUnits="userSpaceOnUse">
<stop stop-color="#ABBAC2"/>
<stop offset="1" stop-color="#262A30"/>
</linearGradient>
<linearGradient id="paint6_linear_684_1158" x1="10.687" y1="15.6376" x2="50.5589" y2="55.5644" gradientUnits="userSpaceOnUse">
<stop stop-color="#B4BDC3"/>
<stop offset="1" stop-color="#3E454D"/>
</linearGradient>
<linearGradient id="paint7_linear_684_1158" x1="58.3549" y1="32.9896" x2="7.67639" y2="32.9896" gradientUnits="userSpaceOnUse">
<stop stop-color="#B4BDC3"/>
<stop offset="1" stop-color="#485159"/>
</linearGradient>
<linearGradient id="paint8_linear_684_1158" x1="34.0531" y1="6.67515" x2="34.6926" y2="6.67515" gradientUnits="userSpaceOnUse">
<stop stop-color="#B3BBC1"/>
<stop offset="0.0806004" stop-color="#A6AEB4"/>
<stop offset="0.5196" stop-color="#636B70"/>
<stop offset="0.8376" stop-color="#3A4246"/>
<stop offset="1" stop-color="#2A3236"/>
</linearGradient>
<radialGradient id="paint9_radial_684_1158" cx="0" cy="0" r="1" gradientUnits="userSpaceOnUse" gradientTransform="translate(21.8662 21.2897) scale(42.2876 42.2294)">
<stop stop-color="white"/>
<stop offset="0.35" stop-color="white"/>
<stop offset="0.511" stop-color="#FBFCFC"/>
<stop offset="0.6773" stop-color="#EEF2F3"/>
<stop offset="0.8453" stop-color="#DAE1E5"/>
<stop offset="1" stop-color="#C0CCD2"/>
</radialGradient>
<radialGradient id="paint10_radial_684_1158" cx="0" cy="0" r="1" gradientUnits="userSpaceOnUse" gradientTransform="translate(20.8258 20.9998) scale(6.17481 6.16631)">
<stop stop-color="white"/>
<stop offset="0.35" stop-color="white"/>
<stop offset="0.5369" stop-color="#FBFCFC"/>
<stop offset="0.7305" stop-color="#EEF2F4"/>
<stop offset="0.9264" stop-color="#DAE2E6"/>
<stop offset="1" stop-color="#D0DADF"/>
</radialGradient>
<clipPath id="clip0_684_1158">
<rect width="150" height="66" fill="white"/>
</clipPath>
</defs>
</svg>
