<svg width="150" height="28" viewBox="0 0 150 28" fill="none" xmlns="http://www.w3.org/2000/svg">
<g id="Frame" clip-path="url(#clip0_684_1191)">
<g id="Group">
<path id="Vector" fill-rule="evenodd" clip-rule="evenodd" d="M9.57935 27.5634H0L1.95029 0.64032H10.325L9.12046 16.2703L18.9866 0.64032H27.8776L9.57935 27.5634Z" fill="#4678BC"/>
<path id="Vector_2" fill-rule="evenodd" clip-rule="evenodd" d="M32.2084 16.5031C31.6922 19.0644 32.2084 21.3638 35.7935 21.3638C36.5392 21.3638 37.5144 21.3638 38.174 20.869V27.7963C36.9694 28 35.5641 28 34.3595 28C26.4436 28 22.3136 24.0707 23.5182 16.2994C24.7228 8.52807 30.4589 2.09563 38.174 0.43659V7.07276C34.6176 8.7027 32.6673 13.2723 32.2084 16.5031ZM38.2027 7.07276C38.9484 6.86902 39.6941 6.63617 40.6119 6.63617C43.9675 6.63617 44.5124 9.13929 44.283 11.7006C43.5373 14.9314 41.8165 19.501 38.2314 20.8399V27.7672C45.9465 26.1081 51.4532 19.4719 52.6578 11.7006C54.1205 3.63825 49.7897 0 41.7878 0C40.6119 0 39.4073 0.232848 38.2027 0.43659V7.07276Z" fill="#4678BC"/>
<path id="Vector_3" fill-rule="evenodd" clip-rule="evenodd" d="M61.3194 0.64032H69.9809L62.4953 20.6362H74.7706L72.132 27.5634H51.2238L61.3194 0.64032Z" fill="#4678BC"/>
<path id="Vector_4" fill-rule="evenodd" clip-rule="evenodd" d="M84.1779 7.56755H76.4915L78.8719 0.64032H103.193L100.497 7.56755H92.7821L85.3825 27.5634H76.7209L84.1779 7.56755Z" fill="#4678BC"/>
<path id="Vector_5" fill-rule="evenodd" clip-rule="evenodd" d="M141.912 8.7027C141.912 7.77131 141.625 7.07277 141.166 6.63618C140.65 6.19958 139.761 5.90852 138.786 5.90852C137.295 5.90852 135.43 6.40333 135.115 7.97505C134.656 10.0416 139.015 10.3326 141.396 11.1767C146.186 12.8067 147.361 15.3098 146.931 18.5405C145.727 24.973 138.786 27.9709 132.734 27.9709C126.224 27.9709 121.004 25.264 122.409 18.3368H130.555C130.325 19.9958 130.555 20.8399 131.3 21.5385C131.73 22.0333 132.935 22.2661 134.426 22.2661C136.061 22.2661 138.241 21.3347 138.47 19.4719C138.786 17.6091 135.86 17.4054 132.275 16.0374C129.121 15.106 125.994 13.2432 126.74 8.90645C127.715 2.70686 134.197 0 139.962 0C145.956 0 151.033 2.29938 149.828 8.7027H141.912Z" fill="#4678BC"/>
<path id="Vector_6" fill-rule="evenodd" clip-rule="evenodd" d="M118.595 0.64032H110.134L89.7131 27.5634H98.3173L110.879 9.86693H111.109L110.593 17.9293L110.134 27.5634H118.795L118.595 0.64032Z" fill="#4678BC"/>
</g>
</g>
<defs>
<clipPath id="clip0_684_1191">
<rect width="150" height="28" fill="white"/>
</clipPath>
</defs>
</svg>
