<svg width="150" height="24" viewBox="0 0 150 24" fill="none" xmlns="http://www.w3.org/2000/svg">
<g id="Frame" clip-path="url(#clip0_684_1243)">
<g id="Group">
<path id="Vector" d="M0 23.4696V0.795532H5.7744V9.81211H18.2632V0.795532H24.4405V23.6022H18.3975V13.6574H5.7744V23.6022H0V23.4696Z" fill="black"/>
<path id="Vector_2" d="M35.3179 23.4696H29.5435V0.795532H35.3179V23.4696Z" fill="black"/>
<path id="Vector_3" d="M37.6007 0.795532H62.5783V4.64084H53.3124V23.6022H47.2695V4.50824H37.6007V0.795532Z" fill="black"/>
<path id="Vector_4" d="M57.3411 23.4696L68.0841 0.662964H75.6043L86.3473 23.4696H79.7672L77.6186 18.6961H66.2041L64.1898 23.4696H57.3411ZM76.2757 14.8508L71.9785 4.64086L67.547 14.8508H76.2757Z" fill="black"/>
<path id="Vector_5" d="M114.682 23.4696V0.795532H120.725V9.81211H133.214V0.795532H139.123V23.6022H133.348V13.6574H120.725V23.6022H114.682V23.4696Z" fill="black"/>
<path id="Vector_6" d="M150 23.4696H144.226V0.795532H150V23.4696Z" fill="black"/>
<path id="Vector_7" d="M105.013 8.35356C105.013 5.96682 103.536 3.71268 98.7019 3.71268C92.3904 3.71268 91.8532 9.14914 91.8532 12.0663C91.8532 18.4309 94.539 20.2873 99.1048 20.4199C103.536 20.5525 105.013 17.7679 105.013 15.3812H111.459C111.191 21.0828 107.296 24 99.1048 24C89.3017 24.1326 85.1388 18.8287 85.1388 12.1989C85.1388 5.56903 89.3017 0.132568 98.8362 0.132568C105.685 0.132568 110.922 2.7845 111.191 8.48616H105.013V8.35356Z" fill="black"/>
</g>
</g>
<defs>
<clipPath id="clip0_684_1243">
<rect width="150" height="24" fill="white"/>
</clipPath>
</defs>
</svg>
